<svg version="1.1" id="Layer_1" xmlns="http://www.w3.org/2000/svg" xmlns:xlink="http://www.w3.org/1999/xlink" x="0px" y="0px"
	 width="100%" viewBox="0 0 512 512" enable-background="new 0 0 512 512" xml:space="preserve">
<path fill="#000000" opacity="1.000000" stroke="none" 
	d="
M182.441864,256.539185 
	C193.178421,264.483612 204.544876,270.844055 214.948608,278.668671 
	C236.260361,294.697205 246.926239,316.288025 247.984070,342.495544 
	C248.749557,361.460663 248.248688,380.477173 248.284286,399.470856 
	C248.287277,401.073914 248.573944,402.850525 246.800323,403.945190 
	C243.507614,403.444397 243.435242,400.480469 242.599014,398.327057 
	C235.801178,380.821960 226.194901,365.204987 211.946045,352.756622 
	C206.556229,348.047821 200.991028,343.510559 195.251770,339.236176 
	C173.196320,322.810303 161.291992,300.520660 156.769867,273.788788 
	C154.986816,263.248505 154.098572,252.657333 153.996017,241.987732 
	C153.972244,239.513901 153.948456,236.991028 155.394714,234.731964 
	C158.150955,234.018738 159.251785,236.233917 160.656876,237.706467 
	C167.233063,244.598495 174.384079,250.816772 182.441864,256.539185 
z"/>
<path fill="#000000" opacity="1.000000" stroke="none" 
	d="
M305.676758,273.627197 
	C322.980713,262.285278 340.179657,251.394531 353.986481,236.131256 
	C354.875580,235.148361 355.935730,233.960663 357.393341,234.655243 
	C359.379761,235.601852 359.188843,237.656937 359.266571,239.470856 
	C359.949066,255.394470 357.966614,270.964752 354.087372,286.445709 
	C348.094025,310.363525 333.576019,328.024933 314.219635,342.127289 
	C293.701141,357.076385 278.441742,375.834503 270.059021,399.965149 
	C269.494446,401.590393 269.109253,403.915009 266.744751,403.753418 
	C264.813324,403.621490 264.809326,401.679169 264.827820,400.215271 
	C265.107635,378.067749 263.710510,355.835144 266.427795,333.801239 
	C269.647125,307.696472 283.514282,288.053650 305.676758,273.627197 
z"/>
<path fill="#000000" opacity="1.000000" stroke="none" 
	d="
M261.526001,291.269745 
	C268.603149,280.416534 277.214203,271.325836 286.765778,263.020966 
	C290.937134,267.686920 290.788300,269.041077 286.621429,272.746521 
	C276.564148,281.690155 267.881073,291.674042 262.956818,304.465637 
	C261.139191,309.187286 260.200287,314.029846 260.263824,319.106201 
	C260.518372,339.429993 260.779144,359.754242 260.888855,380.079102 
	C260.929291,387.569977 260.561798,395.063141 260.373596,402.555084 
	C260.306183,405.238098 260.544525,408.509277 256.851685,408.619019 
	C252.868988,408.737366 252.816391,405.361023 252.822586,402.472473 
	C252.872910,378.975647 252.962006,355.478943 253.043808,331.982178 
	C253.049026,330.482544 252.975220,328.970551 253.134674,327.485382 
	C255.511871,305.343536 244.813477,289.133911 229.403778,275.050537 
	C228.174011,273.926636 226.972015,272.770599 225.710678,271.683380 
	C222.205170,268.661774 222.455994,265.859100 226.698044,262.722656 
	C236.299408,270.794922 244.585632,280.139404 251.854126,290.905548 
	C253.522827,289.153107 252.976166,287.296234 252.978378,285.647522 
	C253.000000,269.483276 252.917892,253.318680 253.009232,237.154999 
	C253.021652,234.954575 251.874298,231.564514 255.857224,231.422791 
	C259.663116,231.287369 260.299988,233.938660 260.287872,237.172241 
	C260.229370,252.832535 260.245819,268.493530 260.346222,284.153534 
	C260.361877,286.591492 259.613037,289.216949 261.526001,291.269745 
z"/>
<path fill="#000000" opacity="1.000000" stroke="none" 
	d="
M200.531372,200.592880 
	C200.292130,198.401306 199.576492,196.536926 201.277618,195.146378 
	C202.461731,194.726059 203.442276,195.143753 204.082947,195.893921 
	C210.816986,203.778702 219.985840,208.474426 228.346024,214.150955 
	C241.236618,222.903595 246.664185,235.292480 247.194565,250.237503 
	C247.322144,253.832397 248.975922,257.686920 246.783463,261.173004 
	C244.849091,261.171753 244.173828,259.914734 243.487045,258.819000 
	C238.403519,250.708435 231.441727,244.518890 223.099258,240.111420 
	C207.265289,231.746094 201.714264,217.711807 200.531372,200.592880 
z"/>
<path fill="#000000" opacity="1.000000" stroke="none" 
	d="
M302.597992,230.545090 
	C299.509827,234.967697 295.058960,237.054260 290.926575,239.484802 
	C282.778290,244.277328 275.727905,250.198929 270.495087,258.162476 
	C269.791687,259.232971 269.115387,260.479462 267.515198,260.733948 
	C265.393768,260.043304 265.873962,258.148499 265.846924,256.609467 
	C265.717438,249.238159 266.810730,242.028458 268.915741,234.966904 
	C271.234100,227.189407 275.708496,221.022263 282.370361,216.332687 
	C291.603943,209.832733 301.500397,204.207489 309.475616,196.015701 
	C309.995880,195.481308 310.906464,195.326920 312.688812,194.517288 
	C313.905212,208.197052 310.360168,219.738037 302.597992,230.545090 
z"/>
<path fill="#000000" opacity="1.000000" stroke="none" 
	d="
M254.693207,168.920166 
	C254.393845,162.133499 254.024124,155.818588 253.841675,149.498276 
	C253.787094,147.607697 253.439072,144.832947 256.052856,144.640976 
	C258.995697,144.424820 259.105225,147.261566 259.125427,149.384750 
	C259.209442,158.204803 259.125427,167.026413 259.186523,175.846848 
	C259.195129,177.087158 258.770477,178.525284 260.160339,179.775116 
	C263.149841,177.694290 265.335999,175.681152 264.026001,171.289276 
	C262.771637,167.083923 263.221344,162.701767 265.523956,158.713730 
	C267.929474,154.547440 272.400909,152.897263 278.110535,153.765701 
	C281.734009,154.316849 282.547302,156.913116 283.054108,159.771759 
	C283.903137,164.560806 284.040771,169.041809 278.759247,171.840149 
	C274.588531,174.049957 269.792847,174.808640 266.453369,179.024673 
	C262.323181,184.238953 259.597870,189.564636 259.902161,196.288895 
	C260.014313,198.767334 259.723206,201.181870 256.348877,201.048859 
	C252.864960,200.911499 253.820709,198.136780 253.743698,196.179092 
	C253.324432,185.520035 248.369339,177.943985 238.632004,173.521820 
	C230.936371,170.026855 229.446640,167.865051 230.796219,161.222443 
	C231.420059,158.152023 231.142776,154.081650 235.794815,153.691254 
	C240.617477,153.286530 245.317825,153.707672 247.927902,158.631851 
	C249.917099,162.384674 251.129044,166.427414 249.476624,170.644485 
	C247.852646,174.788895 249.011948,177.704666 253.254150,179.938583 
	C254.971664,176.541519 254.634232,172.930283 254.693207,168.920166 
z"/>
<path fill="#000000" opacity="1.000000" stroke="none" 
	d="
M228.110718,182.482361 
	C241.234116,181.495071 247.530365,186.981674 248.209778,199.640427 
	C248.940033,213.246719 245.351440,215.608337 232.905838,209.701630 
	C231.408081,208.990784 229.917313,208.262085 228.449417,207.491898 
	C219.498749,202.795517 216.985855,192.890656 222.420654,184.213623 
	C223.802963,182.006683 225.805511,182.587479 228.110718,182.482361 
z"/>
<path fill="#000000" opacity="1.000000" stroke="none" 
	d="
M268.043701,212.057281 
	C265.568207,210.186417 264.575653,207.919495 264.780457,205.306931 
	C265.103760,201.182770 265.320740,196.997772 266.228455,192.984573 
	C267.501221,187.357224 272.615997,183.368988 278.402222,182.773682 
	C278.896423,182.722824 279.437683,182.591965 279.887268,182.728317 
	C283.933777,183.955704 289.991669,179.113113 291.958984,186.577454 
	C294.986572,198.064590 293.466278,202.748627 285.430084,206.948227 
	C282.344116,208.560928 279.204834,210.085785 276.016968,211.484726 
	C273.596527,212.546921 271.086761,213.608398 268.043701,212.057281 
z"/>
<path fill="#000000" opacity="1.000000" stroke="none" 
	d="
M197.370026,259.307404 
	C194.968124,254.625366 194.806656,250.058990 195.861832,245.402969 
	C196.323151,243.367477 197.167496,241.129105 199.784454,242.155151 
	C207.198257,245.061935 214.816742,247.841507 219.062347,255.360504 
	C220.025101,257.065582 220.799438,258.986420 221.158081,260.901978 
	C222.088455,265.871155 220.211456,268.289551 215.168457,268.292542 
	C207.965363,268.296814 201.978577,265.481110 197.370026,259.307404 
z"/>
<path fill="#000000" opacity="1.000000" stroke="none" 
	d="
M293.567627,256.850586 
	C297.833862,248.330032 305.786041,245.532120 313.496277,242.481308 
	C316.288635,241.376434 316.870087,243.584595 317.269043,245.655685 
	C319.517639,257.329254 314.501801,264.974274 302.792755,267.609924 
	C299.562958,268.336975 296.130402,269.276001 293.419006,266.466492 
	C290.557892,263.501801 292.120789,260.297699 293.567627,256.850586 
z"/>
<path fill="#000000" opacity="1.000000" stroke="none" 
	d="
M237.648422,131.302460 
	C247.320007,136.005249 252.497726,143.305832 252.834137,153.823807 
	C252.884796,155.407410 253.543167,157.133850 251.413956,159.040298 
	C247.324951,152.098862 239.707565,149.212753 234.500641,143.576996 
	C231.287766,140.099548 231.338547,135.271591 230.995422,130.832611 
	C230.800018,128.304840 232.416107,127.629791 234.588394,128.967606 
	C235.573105,129.574051 236.440338,130.371262 237.648422,131.302460 
z"/>
<path fill="#000000" opacity="1.000000" stroke="none" 
	d="
M282.077606,131.241150 
	C281.665619,139.334320 278.289948,145.232880 271.588867,149.187363 
	C267.397705,151.660645 264.316925,155.329742 261.488678,159.388199 
	C258.391296,153.474564 262.174530,139.974442 268.018982,135.718704 
	C271.231049,133.379776 274.660614,131.340225 277.983215,129.152100 
	C280.188385,127.699852 281.709412,127.845428 282.077606,131.241150 
z"/>
<path fill="#000000" opacity="1.000000" stroke="none" 
	d="
M255.470764,224.783020 
	C253.934830,223.495712 252.608780,222.464890 251.562454,221.202286 
	C246.964188,215.653656 248.344650,209.840469 254.876541,206.809555 
	C256.985718,205.830872 258.884277,206.381439 260.356903,207.863113 
	C262.636139,210.156372 266.433228,212.435028 265.186737,215.903366 
	C263.695160,220.053589 261.489044,224.609131 255.470764,224.783020 
z"/>
<path fill="#000000" opacity="1.000000" stroke="none" 
	d="
M228.917969,247.301941 
	C229.488632,248.370544 229.959915,249.082428 230.188354,249.865189 
	C231.133438,253.103638 232.290131,256.823639 228.547546,258.722626 
	C225.195633,260.423401 223.664383,256.876923 222.009842,254.796738 
	C218.619827,250.534698 214.330856,247.186310 210.205902,243.559280 
	C216.004272,239.217270 223.637939,240.808945 228.917969,247.301941 
z"/>
<path fill="#000000" opacity="1.000000" stroke="none" 
	d="
M294.969238,250.968536 
	C292.690002,253.401062 290.779480,255.706848 288.606964,257.731506 
	C286.048065,260.116272 284.104889,259.306458 283.155548,256.083679 
	C282.063232,252.375305 283.648529,249.232574 285.635834,246.317230 
	C289.081665,241.262161 297.997406,239.613922 303.536804,243.179352 
	C300.717590,245.735229 297.969788,248.226334 294.969238,250.968536 
z"/>
<path fill="#000000" opacity="1.000000" stroke="none" 
	d="
M241.680542,121.569885 
	C246.941498,118.674072 252.787933,121.668747 253.178131,127.113663 
	C253.444275,130.827560 251.290833,132.727264 247.840469,132.883774 
	C244.172195,133.050156 239.925369,128.592697 240.219894,125.084885 
	C240.312027,123.987633 241.007599,122.941055 241.680542,121.569885 
z"/>
<path fill="#000000" opacity="1.000000" stroke="none" 
	d="
M272.831970,123.559563 
	C273.063293,124.741920 273.340729,125.614677 273.149475,126.368530 
	C272.184723,130.171112 269.492615,132.334305 265.779114,132.770370 
	C262.961884,133.101181 261.069366,131.237686 260.465332,128.531998 
	C259.568481,124.514671 262.373871,122.398338 265.226410,120.664734 
	C268.499329,118.675629 270.860291,120.347763 272.831970,123.559563 
z"/>
<path fill="#000000" opacity="1.000000" stroke="none" 
	d="
M259.588531,112.299942 
	C260.412994,113.398712 261.076935,114.168167 261.476105,115.056587 
	C262.919556,118.269295 261.832367,120.902962 259.217133,122.887337 
	C257.176086,124.436028 255.157181,123.910263 253.513657,122.043320 
	C251.274323,119.499573 250.027878,116.751732 252.272369,113.565033 
	C254.121582,110.939514 256.325226,109.626320 259.588531,112.299942 
z"/>
<path fill="#000000" opacity="1.000000" stroke="none" 
	d="
M261.372192,134.697662 
	C262.604004,138.356277 260.813660,140.419098 258.441986,142.212173 
	C257.015930,143.290329 255.680923,142.974625 254.413483,141.860046 
	C252.419006,140.106155 251.357727,137.995163 251.778046,135.276642 
	C252.111252,133.121414 253.198761,131.481918 255.363541,131.007736 
	C258.202606,130.385864 260.123688,131.747604 261.372192,134.697662 
z"/>
</svg>